<svg width="150" height="150" viewBox="0 0 150 150" fill="none" xmlns="http://www.w3.org/2000/svg">
<ellipse cx="74.8983" cy="74.8981" rx="74.8986" ry="74.8987" transform="rotate(-180 74.8983 74.8981)" fill="#BDAE7F"/>
<path d="M75.1014 0.159546C56.0687 0.159546 37.7498 7.40536 23.8667 20.4248C9.98363 33.4443 1.57779 51.2607 0.35704 70.2543C-0.863708 89.2479 5.19221 107.994 17.2944 122.683C29.3966 137.373 46.6372 146.904 65.5133 149.341C84.3895 151.777 103.485 146.936 118.921 135.801C134.356 124.666 144.974 108.072 148.616 89.3911C152.258 70.71 148.652 51.3431 138.529 35.2251C128.407 19.1071 112.529 7.44722 94.1198 2.61438L75.1014 75.0583L75.1014 0.159546Z" fill="#C7E4E4"/>
<path d="M75.1014 0.159546C58.7764 0.159546 42.8985 5.49326 29.8842 15.3489C16.8699 25.2045 7.43193 39.0423 3.00687 54.7561C-1.4182 70.47 -0.588089 87.1993 5.37086 102.398C11.3298 117.596 22.0913 130.432 36.0173 138.951C49.9434 147.47 66.2714 151.205 82.5162 149.589C98.761 147.973 114.033 141.094 126.008 129.998C137.982 118.902 146.004 104.198 148.852 88.1235C151.699 72.0488 149.217 55.4838 141.783 40.9498L75.1014 75.0583L75.1014 0.159546Z" fill="#8DC8C8"/>
<path d="M75.1014 0.159546C63.3462 0.159546 51.756 2.92648 41.2684 8.23654C30.7809 13.5466 21.6904 21.2506 14.7325 30.7255C7.77451 40.2003 3.14441 51.1799 1.21674 62.776C-0.710953 74.3722 0.11792 86.2592 3.63628 97.4756C7.15463 108.692 13.2637 118.923 21.4693 127.34C29.6748 135.758 39.7465 142.126 50.8695 145.929C61.9925 149.732 73.8546 150.864 85.496 149.232C97.1375 147.601 108.232 143.252 117.881 136.538L75.1014 75.0583L75.1014 0.159546Z" fill="#1EB1B2"/>
<path d="M75.1014 0.159546C56.5608 0.159546 38.6792 7.03629 24.9161 19.4593C11.1531 31.8823 2.48682 48.9685 0.594116 67.4123C-1.2986 85.856 3.71675 104.346 14.6698 119.306C25.6229 134.265 41.7352 144.63 59.8893 148.396L75.1014 75.0583L75.1014 0.159546Z" fill="#015E5F"/>
<circle cx="74.5" cy="74.5" r="42.5" fill="white"/>
</svg>
